<?xml version="1.0" standalone="no"?>
<!DOCTYPE svg PUBLIC "-//W3C//DTD SVG 20010904//EN"
 "http://www.w3.org/TR/2001/REC-SVG-20010904/DTD/svg10.dtd">
<svg version="1.0" xmlns="http://www.w3.org/2000/svg"
 width="1922.000000pt" height="1982.000000pt" viewBox="0 0 1922.000000 1982.000000"
 preserveAspectRatio="xMidYMid meet">

<g transform="translate(0.000000,1982.000000) scale(0.100000,-0.100000)"
fill="#000000" stroke="none">
<path d="M8415 17790 c-1388 -81 -2649 -466 -3830 -1171 -910 -542 -1738
-1288 -2382 -2144 -441 -588 -808 -1241 -1084 -1932 -285 -714 -478 -1526
-548 -2303 -43 -468 -43 -1062 0 -1530 161 -1789 907 -3487 2122 -4828 145
-160 505 -515 662 -653 1299 -1140 2896 -1847 4585 -2028 365 -39 499 -46 930
-45 442 0 639 11 1000 54 1415 171 2767 706 3915 1550 785 577 1475 1300 2010
2105 765 1151 1216 2424 1354 3815 49 488 47 1128 -5 1635 -250 2468 -1575
4680 -3634 6067 -1210 816 -2563 1283 -4050 1398 -182 14 -859 21 -1045 10z
m915 -390 c1078 -65 2062 -321 3015 -784 1360 -660 2518 -1716 3308 -3016 52
-85 100 -154 105 -153 6 2 9 -3 6 -10 -3 -8 37 -90 87 -183 420 -773 719
-1664 853 -2534 66 -431 90 -759 90 -1225 0 -376 -9 -557 -45 -880 -89 -804
-300 -1587 -629 -2330 -84 -192 -298 -608 -404 -790 -665 -1133 -1625 -2105
-2751 -2783 -1050 -632 -2179 -995 -3450 -1109 -241 -21 -960 -24 -1200 -5
-926 75 -1730 270 -2550 619 -1635 697 -3033 1979 -3868 3548 -496 933 -790
1914 -898 2995 -26 264 -37 918 -20 1202 87 1423 531 2747 1314 3923 284 426
568 774 942 1154 428 434 791 735 1275 1056 1183 785 2546 1235 3965 1308 152
8 707 6 855 -3z"/>
<path d="M9159 16673 c-56 -153 -135 -366 -175 -473 l-73 -195 -15 35 c-213
504 -377 885 -383 891 -5 5 -75 6 -156 2 l-147 -6 0 -32 c0 -28 4 -33 31 -39
17 -3 46 -6 63 -6 17 0 36 -4 43 -8 8 -5 13 -138 19 -478 8 -537 19 -477 -88
-490 l-58 -6 0 -39 0 -39 63 0 c34 0 119 3 190 7 l127 6 0 33 c0 35 1 35 -96
49 l-41 6 -6 392 c-4 216 -10 403 -13 417 -18 70 29 -33 205 -447 l193 -453
43 0 43 0 26 68 c14 37 92 246 174 466 l149 398 6 -143 c4 -79 7 -266 7 -416
0 -307 9 -276 -87 -288 -52 -7 -53 -7 -53 -41 l0 -34 231 0 230 0 -3 38 -3 37
-74 7 c-41 4 -76 10 -79 12 -2 3 -7 218 -10 479 l-5 475 54 6 c104 13 111 16
105 39 -3 12 -6 28 -6 35 0 9 -40 12 -164 12 l-164 0 -103 -277z"/>
<path d="M7707 16835 c-97 -23 -179 -44 -182 -47 -3 -3 -2 -19 1 -37 l7 -32
76 7 c42 3 81 7 87 9 14 4 14 5 94 -350 57 -251 61 -277 58 -371 -3 -92 -6
-105 -33 -150 -41 -65 -132 -114 -227 -121 -82 -7 -129 8 -183 58 -68 63 -98
144 -171 461 -36 155 -66 299 -67 318 -2 35 -2 35 73 61 74 27 75 27 72 60 -1
18 -4 35 -6 37 -9 9 -466 -103 -466 -115 0 -6 4 -22 9 -36 9 -23 11 -23 77
-15 37 4 69 7 70 5 1 -1 25 -103 54 -227 96 -412 110 -465 139 -525 67 -135
168 -205 309 -213 190 -10 351 74 418 221 27 58 29 70 28 182 -1 112 -6 141
-73 429 -40 170 -68 312 -64 316 4 4 32 16 62 26 29 10 56 25 58 31 9 24 -7
63 -25 62 -9 -1 -97 -20 -195 -44z"/>
<path d="M10061 16840 c-29 -11 -60 -25 -70 -32 -86 -65 -122 -132 -129 -241
-4 -71 -2 -82 27 -141 39 -79 107 -144 231 -221 52 -32 112 -72 132 -88 41
-33 78 -99 78 -138 0 -80 -52 -157 -125 -185 -61 -23 -191 -16 -260 15 -83 37
-85 41 -85 152 l0 98 -46 7 c-25 3 -49 3 -53 -2 -5 -5 -18 -58 -31 -118 l-22
-108 28 -24 c45 -36 162 -91 234 -110 85 -22 209 -22 282 -1 197 59 286 289
176 459 -38 61 -97 109 -230 192 -106 66 -161 116 -179 163 -13 35 -11 109 5
146 18 44 78 95 122 103 61 11 158 -1 206 -27 l43 -24 5 -100 5 -100 30 -6
c72 -15 68 -19 94 102 l24 112 -34 28 c-121 100 -320 138 -458 89z"/>
<path d="M10922 16153 c-330 -435 -338 -444 -367 -439 -114 21 -111 21 -124
-15 -6 -18 -10 -33 -9 -34 2 -1 82 -28 178 -60 96 -32 180 -60 186 -62 6 -2
15 12 21 32 l11 36 -74 37 -75 38 83 111 c46 62 88 112 93 113 6 0 91 -26 190
-58 l180 -58 3 -147 c1 -81 1 -147 -2 -147 -2 0 -39 7 -81 16 -42 9 -81 12
-85 7 -5 -4 -12 -20 -15 -34 l-7 -27 206 -66 c113 -36 212 -69 219 -72 15 -5
42 50 32 66 -3 4 -29 18 -60 30 l-55 22 0 173 c0 94 -3 347 -7 562 l-6 390
-49 16 -48 15 -338 -445z m288 -12 l0 -259 -152 50 c-84 28 -154 52 -156 53
-3 3 300 414 306 415 1 0 2 -117 2 -259z"/>
<path d="M5065 15802 c-72 -25 -137 -65 -195 -122 -111 -108 -142 -254 -80
-378 79 -157 215 -200 475 -148 160 32 225 33 274 5 43 -24 79 -73 93 -128 28
-109 -97 -257 -251 -297 l-46 -12 -75 74 -75 73 -43 -27 c-23 -15 -40 -32 -38
-38 3 -7 30 -53 61 -103 54 -87 58 -91 92 -91 88 0 230 57 331 132 110 82 184
226 168 330 -17 111 -103 222 -199 254 -65 22 -184 22 -287 -1 -196 -42 -227
-42 -300 -5 -44 22 -88 88 -97 143 -6 40 19 105 61 154 29 35 136 93 170 93
13 0 47 -26 86 -65 35 -36 68 -65 72 -65 5 0 26 12 47 26 l39 26 -56 94 -57
94 -60 0 c-33 -1 -83 -8 -110 -18z"/>
<path d="M6280 15704 c-91 -42 -169 -79 -173 -83 -7 -7 23 -82 39 -100 5 -5
354 152 354 160 0 16 -40 99 -47 98 -4 0 -82 -34 -173 -75z"/>
<path d="M4385 15322 c-27 -26 -94 -88 -148 -138 l-99 -91 25 -28 24 -28 64
46 c35 25 69 47 75 49 15 4 415 -431 464 -505 96 -143 89 -257 -20 -367 -58
-57 -108 -82 -177 -88 -84 -7 -163 36 -276 150 -117 118 -397 425 -397 435 0
5 23 34 50 66 28 32 50 64 50 71 0 7 -9 21 -20 31 -19 17 -21 17 -42 -1 -20
-17 -258 -235 -313 -286 -19 -18 -19 -18 7 -45 l27 -26 55 41 55 42 134 -143
c74 -78 179 -190 233 -249 106 -115 182 -178 254 -211 35 -17 65 -21 140 -22
89 0 99 2 160 34 79 41 187 147 220 216 33 68 39 182 14 262 -29 91 -97 182
-328 431 -129 140 -213 238 -209 245 4 7 25 33 47 60 l39 47 -23 25 c-13 14
-26 25 -29 25 -3 0 -28 -22 -56 -48z"/>
<path d="M8600 15199 c-349 -25 -702 -85 -1061 -180 -86 -23 -119 -36 -115
-45 3 -7 244 -322 536 -698 l531 -686 57 39 c185 125 447 263 678 355 77 31
146 56 152 56 6 0 13 4 16 9 3 5 -95 267 -218 582 l-224 574 -119 1 c-65 1
-170 -2 -233 -7z"/>
<path d="M8970 15202 c0 -10 438 -1133 445 -1140 2 -3 60 12 127 32 316 94
619 141 986 153 l202 6 -2 341 -3 340 -105 33 c-369 116 -840 203 -1260 233
-175 12 -390 13 -390 2z"/>
<path d="M7217 14920 c-1257 -428 -2336 -1315 -2997 -2465 -74 -127 -223 -415
-218 -420 3 -4 2937 -775 2947 -775 3 0 23 69 43 153 53 218 130 444 222 649
l25 57 -57 34 c-31 18 -544 311 -1140 652 -595 340 -1080 620 -1077 623 2 3
512 -285 1131 -639 620 -354 1133 -645 1140 -647 8 -2 28 27 50 70 116 231
296 503 484 729 l29 36 -774 743 c-426 409 -772 746 -769 749 2 3 33 -22 67
-55 34 -34 355 -341 712 -684 358 -343 678 -650 711 -683 l62 -59 123 127
c139 143 294 280 446 394 60 45 98 80 93 86 -4 5 -243 314 -530 685 -287 371
-528 681 -534 687 -9 10 -49 0 -189 -47z"/>
<path d="M10740 14585 l0 -345 68 0 c130 0 403 -38 622 -86 130 -29 142 -34
131 -52 -6 -9 -30 -7 -107 12 -184 46 -531 96 -666 96 l-48 0 0 -864 0 -864
78 -6 c217 -17 355 -41 349 -59 -5 -15 -34 -14 -180 6 -65 10 -147 17 -183 17
l-64 0 0 -365 c0 -201 -3 -365 -7 -365 -5 0 -7 165 -5 367 l3 366 -98 -6
c-159 -11 -350 -50 -478 -98 -69 -26 -72 -1 41 -285 46 -116 84 -215 84 -218
0 -3 -4 -6 -8 -6 -4 0 -16 24 -26 53 -38 107 -158 412 -166 420 -16 17 -381
-184 -405 -223 -5 -8 113 -167 250 -337 17 -21 21 -33 13 -33 -7 0 -26 19 -43
43 -59 84 -236 307 -244 307 -5 0 -49 -35 -97 -79 -94 -83 -200 -201 -272
-304 l-44 -62 116 -111 c64 -61 113 -114 109 -118 -4 -4 -57 44 -119 105
l-112 112 -45 -78 c-25 -43 -58 -106 -72 -140 -18 -40 -35 -67 -51 -73 -21
-10 -23 -10 -15 11 25 63 75 165 111 226 22 38 40 72 40 75 0 4 -1033 1000
-1336 1289 l-42 39 -95 -118 c-106 -134 -199 -266 -279 -399 -67 -111 -168
-299 -168 -312 0 -8 1207 -704 1645 -948 134 -75 131 -73 122 -81 -3 -4 -84
39 -179 94 -95 56 -492 283 -883 506 -626 358 -711 404 -722 390 -20 -27 -99
-223 -148 -364 -55 -162 -130 -459 -119 -469 9 -8 1310 -351 1332 -351 6 0 12
-5 12 -11 0 -6 -8 -9 -17 -6 -73 21 -1317 347 -1327 347 -19 0 -52 -227 -71
-478 l-7 -84 551 4 c303 2 551 0 551 -4 0 -5 -247 -8 -550 -8 l-550 0 0 -147
c0 -82 5 -199 10 -262 8 -91 8 -116 -2 -122 -23 -14 -29 38 -35 289 l-6 242
-1658 0 c-1570 0 -1658 -1 -1663 -17 -8 -28 -34 -214 -51 -373 -9 -80 -19
-272 -22 -428 l-6 -283 24 5 c13 3 758 116 1654 251 897 135 1665 252 1709
260 90 17 106 18 106 7 0 -5 -55 -16 -122 -26 -161 -23 -3293 -495 -3337 -503
l-34 -6 7 -131 c10 -183 32 -394 61 -576 27 -168 83 -441 94 -459 5 -8 389
112 1247 389 681 220 1299 420 1372 445 72 24 132 40 132 35 0 -5 -10 -12 -22
-15 -13 -4 -619 -200 -1348 -435 -729 -235 -1336 -431 -1349 -435 -30 -9 -28
-22 34 -232 82 -276 216 -616 336 -856 l44 -87 1209 655 c664 361 1212 655
1217 653 5 -2 -538 -299 -1206 -662 l-1215 -658 47 -87 c27 -47 53 -94 59
-104 10 -17 81 21 750 396 406 228 930 521 1164 652 234 131 515 288 625 350
309 173 331 185 342 185 15 0 38 -59 27 -69 -5 -5 -121 -71 -259 -147 -235
-129 -450 -250 -1987 -1109 -334 -187 -607 -344 -608 -348 0 -13 143 -235 240
-372 99 -139 210 -281 305 -391 l62 -71 1178 844 c647 464 1180 842 1182 839
3 -2 -19 -22 -48 -43 -29 -21 -557 -399 -1174 -841 -616 -441 -1121 -807
-1123 -812 -5 -14 399 -414 528 -523 244 -205 643 -493 674 -485 12 3 2035
2304 2251 2561 50 59 96 107 103 107 18 0 2 -27 -42 -69 -33 -32 -49 -60 -27
-46 6 3 50 -24 98 -59 110 -80 327 -212 454 -276 l96 -48 225 466 c125 257
254 528 289 602 74 158 65 143 78 139 7 -3 -15 -56 -50 -124 -105 -208 -530
-1087 -526 -1091 12 -12 266 -114 385 -155 205 -69 462 -133 462 -114 0 3 88
383 195 844 107 461 197 854 200 872 14 88 29 139 40 139 9 0 9 -14 -2 -57
-12 -47 -398 -1695 -418 -1784 -6 -26 -4 -27 62 -39 213 -37 608 -67 719 -54
l54 7 -2 976 -3 976 -70 5 c-68 5 -69 5 -40 19 17 8 49 13 72 12 l41 -2 -5 95
c-4 69 -3 96 6 96 7 0 11 -30 11 -95 l0 -95 43 0 c54 0 229 19 235 25 6 5 -15
145 -28 190 -16 58 -20 107 -7 102 13 -4 17 -25 37 -184 13 -101 14 -103 39
-103 32 0 223 48 234 59 6 6 -50 190 -73 236 -25 49 -40 109 -31 118 10 10 31
-28 31 -54 0 -5 21 -74 47 -153 l46 -144 54 19 c51 17 253 109 253 115 0 4
-129 235 -161 288 -17 27 -28 51 -25 53 10 10 29 -11 50 -56 38 -81 137 -260
147 -267 13 -8 98 44 205 124 l84 64 -32 41 c-18 23 -63 77 -100 120 -38 44
-68 83 -68 88 0 21 33 22 49 2 9 -12 51 -66 95 -122 l79 -100 26 18 c23 16
141 143 179 192 11 14 -4 30 -110 116 -68 54 -138 109 -156 122 -18 12 -30 26
-27 31 3 5 74 -47 158 -116 l152 -124 28 32 c33 39 129 190 159 253 14 28 18
48 12 54 -5 5 -141 78 -301 161 -161 84 -290 156 -287 162 4 5 13 4 22 -5 21
-17 583 -310 587 -305 18 21 122 336 113 342 -6 5 -723 185 -761 192 -35 6
-55 19 -44 30 2 3 24 -2 48 -10 103 -35 752 -197 759 -189 10 11 28 114 35
196 3 37 7 96 10 132 l6 65 -451 0 c-247 0 -450 3 -450 8 0 4 196 6 436 4 240
-2 441 -1 448 1 15 6 4 179 -20 307 -12 70 -20 90 -33 90 -9 0 -196 -43 -416
-96 -479 -114 -455 -109 -455 -96 0 6 17 14 38 17 72 12 827 189 835 196 15
12 -108 349 -127 349 -3 0 -164 -88 -356 -196 -193 -108 -352 -195 -354 -193
-2 2 -6 20 -10 39 l-6 36 345 193 c190 107 345 196 345 198 0 9 -112 177 -155
233 -23 30 -73 88 -110 128 l-68 74 -294 -294 c-161 -161 -293 -288 -293 -283
0 6 128 138 285 295 157 157 285 288 285 291 0 22 -333 259 -364 259 -6 0 -63
-93 -126 -207 -62 -115 -152 -277 -199 -362 -46 -85 -87 -149 -89 -143 -2 7 1
18 6 25 17 21 382 687 382 698 0 14 -138 75 -270 119 -76 25 -116 43 -118 54
-2 9 1 16 7 16 25 0 214 -66 305 -106 55 -25 103 -41 106 -37 4 5 186 334 404
732 375 683 397 726 380 739 -35 26 -319 161 -444 210 -69 28 -178 67 -242 87
-77 24 -118 42 -118 51 0 20 6 19 161 -32 184 -60 351 -129 528 -219 80 -40
148 -72 152 -69 16 10 90 157 82 163 -5 3 -51 40 -103 82 -186 148 -466 340
-643 440 l-77 44 6 43 c7 49 -13 60 -22 12 -4 -16 -9 -30 -13 -30 -3 0 -100
47 -216 104 -218 108 -399 186 -592 255 l-113 40 0 -344z"/>
<path d="M3408 14245 c-54 -20 -116 -65 -173 -126 -56 -60 -335 -424 -335
-436 0 -4 12 -16 26 -27 l26 -18 57 56 58 57 279 -212 c343 -262 468 -359 471
-368 2 -3 -15 -35 -36 -71 l-40 -65 27 -22 c15 -11 30 -19 33 -17 4 2 71 87
149 189 l141 186 -23 19 c-13 11 -28 19 -34 20 -7 0 -35 -25 -62 -55 l-50 -54
-166 125 c-91 68 -168 129 -171 133 -6 10 56 90 108 140 30 28 46 35 89 39 48
3 69 -3 223 -68 192 -82 219 -89 263 -66 40 20 115 114 135 168 4 12 -3 24
-25 40 l-31 22 -43 -49 -43 -48 -133 51 c-210 80 -266 89 -345 52 -24 -10 -43
-18 -43 -16 0 2 7 23 16 47 21 57 21 173 1 220 -23 55 -86 119 -142 145 -58
27 -147 31 -207 9z m113 -146 c123 -61 171 -182 119 -298 -23 -50 -117 -181
-131 -181 -12 0 -349 260 -349 269 0 13 134 174 161 193 64 47 128 53 200 17z"/>
<path d="M10290 14203 c-206 -16 -514 -74 -734 -139 -102 -30 -127 -40 -123
-53 2 -9 145 -376 317 -816 172 -440 316 -810 321 -822 l8 -21 103 33 c125 41
275 72 383 80 44 3 99 8 123 11 l42 5 0 865 0 864 -197 -2 c-109 -1 -218 -3
-243 -5z"/>
<path d="M9328 13990 c-264 -99 -531 -234 -740 -374 l-76 -52 561 -726 c309
-400 565 -727 569 -727 4 -1 44 24 90 55 46 31 140 84 209 119 l126 62 -326
837 c-179 460 -328 836 -331 835 -3 0 -39 -13 -82 -29z"/>
<path d="M12504 13873 c-15 -27 -35 -62 -45 -80 l-18 -32 62 -37 c193 -116
411 -278 586 -434 100 -91 115 -101 128 -87 13 13 7 24 -53 93 -175 203 -472
498 -606 603 l-27 22 -27 -48z"/>
<path d="M12025 13002 c-220 -399 -401 -731 -402 -736 -1 -6 36 -33 83 -61 47
-27 133 -87 191 -134 l105 -84 587 587 586 587 -78 75 c-157 149 -505 407
-642 477 l-31 15 -399 -726z"/>
<path d="M8385 13474 c-55 -42 -140 -112 -190 -155 -116 -100 -358 -345 -354
-358 2 -5 312 -305 688 -667 565 -544 685 -654 693 -640 49 87 249 310 361
403 l49 40 -561 724 c-309 398 -567 725 -574 727 -6 1 -57 -32 -112 -74z"/>
<path d="M13221 13187 c-8 -11 -6 -18 10 -33 23 -21 173 -184 228 -249 34 -40
34 -40 13 -5 -30 51 -223 300 -232 300 -4 0 -13 -6 -19 -13z"/>
<path d="M12597 12562 l-587 -587 46 -45 c68 -66 159 -182 234 -296 l66 -101
719 403 c396 222 721 408 723 412 4 13 -146 247 -239 373 -96 128 -239 296
-321 376 l-53 53 -588 -588z"/>
<path d="M2512 13024 c-22 -45 -22 -47 -5 -67 10 -12 171 -184 357 -382 187
-198 350 -372 364 -387 l24 -26 -21 -57 c-12 -30 -21 -62 -21 -69 0 -13 57
-43 64 -35 7 9 176 337 176 343 0 3 -13 12 -30 21 l-30 15 -45 -62 c-25 -35
-51 -63 -57 -63 -6 0 -52 45 -103 100 l-93 100 90 170 c49 93 90 171 92 173 3
3 251 -36 274 -43 9 -3 6 -22 -13 -71 -31 -84 -31 -90 4 -108 l28 -15 108 205
c59 113 105 207 103 208 -9 8 -48 26 -56 26 -5 0 -24 -22 -43 -50 -19 -27 -38
-50 -44 -50 -5 0 -255 38 -555 85 -300 47 -545 85 -546 85 0 0 -10 -21 -22
-46z m423 -170 c132 -20 242 -38 244 -40 4 -3 -85 -180 -126 -251 l-25 -43
-111 118 c-62 64 -143 150 -182 190 -38 40 -63 71 -55 68 8 -3 123 -21 255
-42z"/>
<path d="M2190 12243 c-53 -60 -101 -141 -133 -227 -28 -74 -31 -91 -31 -206
0 -108 3 -133 23 -185 58 -147 154 -251 295 -321 291 -143 602 -76 759 164 78
120 117 250 117 396 0 114 -1 115 -130 160 -61 21 -113 36 -116 34 -2 -3 -10
-26 -18 -51 l-14 -47 90 -47 90 -48 -5 -85 c-7 -113 -36 -187 -104 -260 -36
-39 -72 -66 -115 -85 -207 -93 -574 16 -707 209 -39 56 -71 153 -71 213 0 90
34 183 90 246 l29 34 78 -13 c121 -20 117 -21 135 36 l16 50 -86 26 c-48 14
-100 29 -116 35 -41 13 -40 13 -76 -28z"/>
<path d="M13115 11870 c-390 -220 -713 -401 -717 -402 -5 -2 10 -44 31 -93 21
-50 51 -131 67 -180 15 -50 28 -92 30 -94 5 -6 1608 371 1618 380 13 11 -31
165 -96 339 -58 158 -196 450 -212 450 -6 -1 -330 -181 -721 -400z"/>
<path d="M3951 11926 c-107 -245 -217 -558 -285 -817 -28 -107 -96 -414 -96
-434 0 -3 746 -5 1658 -5 l1658 0 12 153 c7 83 19 195 27 247 8 52 18 113 21
135 l6 40 -1459 383 c-802 210 -1467 385 -1479 388 -18 5 -26 -7 -63 -90z"/>
<path d="M14180 11516 c0 -8 4 -17 9 -20 5 -4 7 3 4 14 -6 23 -13 26 -13 6z"/>
<path d="M13345 11276 c-445 -104 -811 -190 -813 -192 -2 -1 4 -35 12 -75 9
-41 22 -134 28 -207 l12 -132 846 2 845 3 -3 75 c-9 200 -80 654 -111 706 -4
7 -286 -55 -816 -180z"/>
<path d="M14216 11374 c36 -151 63 -324 81 -521 l17 -182 45 -4 46 -3 -47 -2
-48 -2 0 -158 c0 -173 -21 -418 -49 -582 -10 -58 -17 -106 -16 -108 4 -5 219
-62 234 -62 12 0 13 31 8 193 -15 460 -98 943 -239 1395 -23 72 -44 132 -48
132 -4 0 3 -43 16 -96z"/>
<path d="M1811 11006 c-47 -247 -48 -256 -22 -256 11 0 26 -2 34 -5 10 -4 20
14 36 70 14 48 28 75 37 75 14 0 598 -111 804 -153 l115 -23 -1 -81 -1 -81 30
-6 c17 -4 34 -3 38 1 3 5 26 109 49 232 46 238 46 240 -7 241 -18 0 -25 -12
-46 -72 -22 -66 -26 -73 -48 -70 -81 11 -898 170 -909 177 -3 2 -3 37 0 79 5
81 3 86 -44 86 -22 0 -25 -10 -65 -214z"/>
<path d="M12577 10548 c-4 -62 -13 -153 -22 -202 -9 -49 -12 -93 -8 -97 10 -9
1654 -431 1659 -426 8 8 33 154 49 287 9 74 19 228 22 343 l6 207 -850 0 -850
0 -6 -112z"/>
<path d="M12511 10148 c-12 -46 -38 -123 -57 -171 -20 -51 -32 -93 -27 -98 8
-8 1508 -794 1537 -805 27 -10 158 363 220 624 13 56 21 104 17 106 -9 6
-1645 426 -1658 426 -5 0 -20 -37 -32 -82z"/>
<path d="M12352 9762 c-33 -59 -81 -136 -106 -172 -44 -61 -45 -65 -29 -81 47
-44 1363 -1109 1371 -1109 12 0 91 114 169 245 60 99 217 405 211 410 -2 1
-316 165 -698 365 -382 199 -732 382 -776 406 l-82 44 -60 -108z"/>
<path d="M14236 9778 c-2 -7 -18 -71 -36 -142 -38 -157 -87 -313 -147 -465
-37 -94 -42 -116 -31 -126 20 -19 396 -211 401 -205 9 9 45 320 57 485 6 88
10 216 8 284 l-3 125 -110 28 c-126 32 -134 32 -139 16z"/>
<path d="M12135 9449 c-27 -33 -76 -85 -107 -115 l-58 -55 578 -709 577 -708
83 81 c160 157 386 432 365 445 -5 4 -317 257 -692 562 -375 305 -685 556
-689 557 -4 2 -29 -24 -57 -58z"/>
<path d="M11890 9214 c-25 -20 -89 -66 -142 -101 l-97 -64 32 -58 c18 -32 219
-398 447 -814 228 -416 419 -757 423 -757 27 -1 358 245 500 372 l48 43 -577
708 c-317 389 -579 707 -583 707 -3 0 -26 -17 -51 -36z"/>
<path d="M11535 8994 c-49 -24 -114 -52 -144 -61 -29 -10 -55 -22 -58 -29 -3
-10 579 -1789 590 -1800 7 -8 234 93 372 165 164 86 235 129 235 144 0 18
-884 1620 -895 1623 -6 1 -50 -18 -100 -42z"/>
<path d="M13947 8927 c-66 -138 -155 -295 -254 -445 -41 -63 -73 -115 -71
-117 43 -39 562 -455 567 -455 10 0 80 226 130 420 38 144 101 443 101 475 0
8 -73 52 -167 101 -93 47 -187 97 -210 110 l-42 24 -54 -113z"/>
<path d="M11200 8875 c-47 -13 -102 -26 -123 -30 -32 -5 -36 -9 -32 -28 3 -12
73 -440 155 -951 83 -511 152 -931 153 -933 2 -1 65 13 141 32 186 47 418 125
413 139 -2 6 -136 413 -298 903 -220 668 -298 892 -309 892 -8 -1 -53 -12
-100 -24z"/>
<path d="M10965 8830 c-27 -5 -89 -9 -137 -9 l-88 -1 0 -982 0 -981 109 7
c155 9 455 50 479 65 6 4 -48 361 -144 956 -85 523 -154 951 -154 953 0 1 -3
1 -7 1 -5 -1 -30 -5 -58 -9z"/>
<path d="M15453 8706 c-193 -45 -352 -195 -407 -387 -27 -91 -36 -211 -25
-301 5 -45 14 -89 19 -98 6 -11 43 -24 107 -39 54 -12 107 -24 119 -27 19 -5
22 1 31 46 l11 52 -52 23 c-28 12 -68 28 -89 35 -50 16 -60 43 -54 150 6 123
34 190 111 266 91 90 144 108 311 108 106 1 145 -4 210 -22 159 -46 280 -136
333 -249 51 -111 41 -261 -24 -365 l-25 -40 -102 3 -102 3 -9 -48 c-6 -33 -5
-50 2 -55 6 -4 62 -15 123 -25 l113 -19 23 29 c39 47 100 184 117 261 68 307
-93 582 -399 679 -101 32 -251 40 -342 20z"/>
<path d="M13500 8218 c-58 -72 -160 -189 -228 -259 l-122 -127 321 -393 c176
-217 325 -395 329 -397 26 -10 370 752 374 827 1 25 -31 54 -277 254 -152 125
-281 227 -285 227 -4 0 -55 -59 -112 -132z"/>
<path d="M14917 7708 c-37 -95 -67 -178 -67 -185 0 -6 14 -16 30 -22 30 -10
31 -9 58 40 55 103 44 103 162 4 58 -48 106 -91 108 -95 3 -9 -127 -351 -137
-361 -7 -7 -279 5 -286 13 -3 2 4 36 15 74 11 38 18 74 16 80 -2 6 -18 16 -34
22 l-29 10 -82 -212 c-45 -116 -81 -214 -81 -218 0 -6 62 -31 65 -26 1 2 16
28 33 59 l31 55 58 -3 c32 -2 283 -12 557 -24 377 -15 501 -17 506 -8 12 18
34 89 29 92 -2 2 -193 163 -424 357 -231 194 -421 354 -422 355 -1 0 5 31 14
69 16 72 13 81 -28 91 -25 6 -27 3 -92 -167z m558 -478 c88 -73 169 -142 180
-152 20 -20 18 -20 -175 -13 -107 4 -223 10 -256 14 l-61 6 59 153 c54 138 62
152 77 139 9 -7 88 -73 176 -147z"/>
<path d="M13059 7752 c-112 -97 -251 -205 -364 -281 -61 -41 -114 -77 -119
-82 -8 -7 611 -1147 640 -1178 15 -16 3 -29 142 148 92 117 303 430 377 559
43 75 46 84 33 100 -9 9 -147 179 -308 377 -161 198 -303 372 -315 387 l-22
26 -64 -56z"/>
<path d="M7230 6319 c-608 -693 -1111 -1269 -1118 -1278 -12 -17 -3 -25 100
-86 252 -149 678 -345 978 -450 155 -54 444 -136 451 -127 10 12 1361 2804
1357 2805 -214 108 -394 214 -545 322 -57 41 -107 75 -111 75 -4 -1 -504 -568
-1112 -1261z"/>
<path d="M12480 7334 c-77 -49 -347 -184 -456 -228 l-91 -38 62 -191 c203
-629 470 -1427 477 -1427 13 0 217 180 357 315 131 127 381 399 381 414 0 20
-649 1186 -661 1188 -8 1 -39 -14 -69 -33z"/>
<path d="M8927 6998 c-46 -95 -350 -722 -675 -1393 -326 -671 -592 -1225 -592
-1231 0 -21 430 -102 711 -134 209 -24 574 -40 750 -33 l126 6 306 1321 c168
726 307 1329 309 1339 3 16 -18 24 -147 56 -234 60 -447 131 -614 207 -40 19
-77 34 -82 34 -5 0 -47 -78 -92 -172z"/>
<path d="M11790 7019 c-63 -22 -185 -58 -270 -80 -85 -22 -156 -42 -158 -44
-5 -5 311 -1964 319 -1977 20 -32 780 486 771 525 -10 50 -532 1612 -538 1613
-5 1 -61 -16 -124 -37z"/>
<path d="M9876 6867 c-3 -13 -140 -604 -305 -1313 -165 -709 -302 -1302 -306
-1317 l-7 -28 88 6 c608 44 1147 167 1704 388 205 81 616 287 613 307 -4 43
-317 1976 -320 1979 -2 3 -65 -5 -141 -17 -132 -21 -301 -40 -407 -45 l-50 -2
-5 -1165 -5 -1165 -3 1163 -2 1162 -109 0 c-200 0 -598 37 -717 66 -17 4 -23
0 -28 -19z"/>
<path d="M14557 6803 c-78 -124 -187 -305 -187 -311 0 -4 13 -14 29 -24 l29
-16 54 69 c29 37 58 67 64 64 21 -7 674 -409 674 -415 0 -3 -253 -26 -562 -52
-485 -41 -565 -50 -575 -65 -7 -9 -13 -22 -13 -27 0 -6 199 -132 441 -281 243
-148 443 -274 445 -280 3 -6 -7 -38 -21 -70 l-26 -59 23 -18 c13 -10 28 -18
33 -18 6 1 57 78 114 172 l105 171 -23 18 c-13 11 -27 19 -32 19 -5 0 -32 -29
-61 -65 -34 -43 -57 -64 -67 -60 -8 3 -152 90 -320 193 -194 119 -299 188
-286 190 11 1 244 20 519 42 274 21 500 41 501 42 2 2 32 51 68 110 l66 106
-24 16 c-35 23 -40 21 -81 -29 -20 -25 -41 -45 -47 -45 -7 0 -782 468 -806
487 -3 2 5 27 18 56 36 82 36 84 2 101 l-31 16 -23 -37z"/>
<path d="M13913 5769 c-180 -91 -310 -263 -321 -425 -6 -101 16 -163 82 -229
64 -64 114 -88 194 -93 87 -6 135 8 302 89 173 83 224 93 294 59 66 -32 99
-78 104 -149 3 -44 -1 -67 -18 -103 -26 -56 -120 -148 -151 -148 -12 0 -57 21
-100 46 l-78 45 -30 -33 c-17 -18 -31 -38 -31 -43 0 -6 33 -44 74 -84 66 -65
78 -73 103 -68 117 24 244 134 307 267 26 56 31 77 31 145 0 96 -23 153 -85
213 -83 81 -190 109 -307 79 -34 -9 -122 -46 -195 -82 -181 -90 -251 -97 -325
-32 -94 83 -83 218 29 342 25 28 66 60 91 73 l45 22 87 -52 88 -52 34 39 33
40 -85 83 c-47 45 -91 82 -98 82 -7 0 -40 -14 -74 -31z"/>
<path d="M13375 5192 c-55 -48 -122 -105 -148 -127 l-47 -40 23 -29 23 -28 72
46 c40 25 72 44 72 42 0 -2 24 -63 54 -134 l54 -131 -132 -114 c-72 -62 -140
-119 -151 -126 -18 -11 -35 -4 -142 59 l-123 72 57 65 56 64 -25 26 -26 26
-171 -148 c-94 -82 -171 -150 -171 -152 0 -10 33 -53 41 -53 5 0 31 16 58 35
l50 36 463 -272 c255 -150 472 -278 483 -285 18 -11 25 -9 62 22 l41 34 -207
518 -208 519 48 54 47 53 -22 28 c-11 15 -23 27 -26 27 -3 0 -50 -39 -105 -87z
m232 -724 c51 -127 91 -233 89 -235 -4 -4 -435 251 -435 257 1 8 239 210 247
210 4 0 49 -105 99 -232z"/>
<path d="M12320 4374 c-107 -69 -201 -128 -209 -133 -11 -7 -10 -13 3 -39 9
-18 19 -32 21 -32 3 0 39 17 81 38 74 36 76 37 90 17 20 -26 369 -579 440
-697 30 -50 53 -92 51 -94 -2 -2 -50 -34 -107 -70 l-104 -66 -76 81 -75 82
-42 -26 -43 -26 68 -97 c37 -54 77 -111 88 -127 l22 -29 323 203 c178 112 354
222 391 245 37 23 68 44 68 47 0 12 -143 259 -150 259 -14 0 -80 -41 -80 -49
0 -5 18 -50 39 -102 22 -52 37 -97 33 -101 -4 -4 -53 -36 -109 -72 l-102 -64
-109 171 c-90 141 -307 489 -382 611 l-18 30 69 54 69 55 -17 28 c-10 16 -22
29 -28 28 -5 -1 -98 -57 -205 -125z"/>
<path d="M11210 3819 c-173 -66 -319 -124 -324 -129 -7 -7 24 -106 39 -128 2
-3 502 185 517 194 4 3 -13 -39 -38 -93 -162 -346 -206 -474 -207 -598 0 -109
28 -182 97 -250 78 -78 163 -94 288 -55 125 38 224 123 256 219 17 48 15 132
-3 158 -20 29 -58 36 -100 19 -43 -18 -49 -40 -43 -162 l5 -95 -48 -25 c-57
-29 -134 -32 -185 -8 -87 42 -141 169 -131 308 9 124 47 238 175 526 31 69 55
132 55 140 -1 8 -10 34 -20 57 l-18 41 -315 -119z"/>
<path d="M10404 3592 c-107 -38 -179 -130 -205 -260 -17 -88 -6 -253 25 -377
57 -230 149 -379 279 -447 34 -18 58 -23 127 -23 76 0 91 3 139 30 66 36 114
91 143 164 21 50 23 72 22 216 0 142 -4 171 -28 260 -57 211 -156 364 -271
423 -67 33 -161 39 -231 14z m124 -72 c7 0 33 -19 58 -42 73 -67 130 -197 180
-413 22 -97 28 -145 28 -250 1 -117 -1 -134 -22 -173 -29 -54 -94 -88 -149
-77 -102 19 -203 208 -262 491 -44 216 -38 353 21 420 31 35 78 56 113 48 11
-2 26 -4 33 -4z"/>
<path d="M9630 3445 c-168 -19 -312 -34 -321 -34 -13 -1 -14 -11 -8 -66 3 -36
9 -68 11 -70 3 -3 127 8 276 23 150 15 272 27 272 25 0 -1 -48 -59 -106 -129
-154 -183 -229 -288 -277 -383 -41 -83 -42 -86 -42 -190 0 -99 2 -110 30 -160
56 -102 135 -137 289 -129 104 6 175 31 238 87 77 68 115 201 66 235 -34 24
-90 20 -116 -7 -21 -22 -51 -131 -52 -184 0 -31 -34 -46 -105 -47 -199 -2
-269 219 -145 464 39 77 109 178 236 337 l123 153 -6 55 c-5 52 -7 55 -32 54
-14 -1 -163 -16 -331 -34z"/>
<path d="M8783 3429 c-69 -11 -132 -42 -186 -89 -156 -137 -152 -421 8 -542
78 -59 130 -73 273 -73 l123 0 -5 -30 c-3 -16 -8 -66 -11 -110 -3 -44 -8 -92
-11 -107 l-5 -27 -233 6 -233 6 -6 -24 c-4 -13 -7 -45 -7 -70 l0 -46 276 -7
c152 -4 277 -6 279 -4 5 6 53 513 49 518 -3 2 -69 4 -147 5 -129 0 -146 2
-190 24 -117 57 -158 216 -95 363 37 86 110 129 220 130 93 0 106 -6 118 -55
6 -23 16 -59 21 -81 13 -47 50 -86 83 -86 34 0 69 17 84 40 29 47 -55 188
-137 230 -40 20 -137 41 -185 39 -17 -1 -55 -5 -83 -10z"/>
</g>
</svg>
